Coordinates
version=1
nRows=12
nColumns=38
inDegrees=yes

Units are S.I. units (second, meters, Newtons, ...)
Angles are in degrees.

endheader
time	pelvis_tilt	pelvis_list	pelvis_rotation	pelvis_tx	pelvis_ty	pelvis_tz	hip_flexion_r	hip_adduction_r	hip_rotation_r	knee_angle_r	ankle_angle_r	subtalar_angle_r	mtp_angle_r	hip_flexion_l	hip_adduction_l	hip_rotation_l	knee_angle_l	ankle_angle_l	subtalar_angle_l	mtp_angle_l	lumbar_extension	lumbar_bending	lumbar_rotation	arm_flex_r	arm_add_r	arm_rot_r	elbow_flex_r	pro_sup_r	wrist_flex_r	wrist_dev_r	arm_flex_l	arm_add_l	arm_rot_l	elbow_flex_l	pro_sup_l	wrist_flex_l	wrist_dev_l
      0.05600000	      5.14630164	     -1.53669365	     -0.54932648	     -1.87183700	      1.00288667	      0.28721575	     29.12812322	     -0.54387576	     -2.06440214	    -31.96417728	    -13.45749821	    -12.65458173	      3.83283715	     19.06242603	     -1.26441436	    -11.80601870	   -133.59480908	    -14.96309489	    -13.56309880	     11.55726882	    -27.04492113	      7.03452462	     -5.22289681	    -21.19349947	    -14.41268295	     -4.66957099	    101.95074962	     65.50607198	     -8.31402333	      6.72236973	    -15.20428414	    -14.82252783	     -1.51777784	     58.51387179	     69.61066388	     -3.39734789	     11.07636118
      0.06000000	      6.29655624	     -1.82215284	     -2.74722868	     -1.83381776	      1.00194869	      0.29164923	     25.63224376	      0.69776838	     -0.91867619	    -30.74728005	    -15.86348448	    -12.37306641	      3.66515831	     20.44325916	     -2.92701091	    -13.67193646	   -135.57731991	    -13.63774449	    -12.70858837	     12.14697601	    -28.58781602	      5.93294834	     -3.95552634	    -16.62583445	    -14.60801090	     -0.74968277	    102.99863895	     66.26120033	     -8.63407258	      7.19472279	    -17.70699094	    -15.26968941	     -0.96471282	     55.91817987	     68.52291497	     -3.24478192	     11.74487642
      0.06400000	      7.00031008	     -2.07937669	     -4.71201228	     -1.79467244	      1.00057471	      0.29519494	     22.49752407	      1.51317540	     -0.04216467	    -29.89976284	    -15.16435244	    -11.28733165	      3.99676709	     22.20179476	     -4.48691200	    -15.13818177	   -137.23975107	    -12.15991267	    -10.67643562	     12.43496864	    -29.25606392	      4.86350739	     -3.49155186	    -11.67661798	    -14.94988152	      4.62220157	    102.97189426	     67.71222006	     -9.14000511	      7.81985616	    -20.82157899	    -14.98198096	     -2.10800795	     53.34368613	     67.89348226	     -3.04143719	     12.69143278
      0.06800000	      7.32872396	     -2.23049056	     -4.34314936	     -1.75176863	      0.99902790	      0.29620887	     19.62813662	      1.16059046	     -2.49533898	    -30.27266158	     -9.03790864	    -11.07528228	      1.08392265	     24.56002369	     -5.14951202	    -14.64760170	   -138.69960432	    -11.06590150	    -10.37838374	     12.32635718	    -28.88824106	      4.72929388	     -4.98665079	     -7.30743062	    -14.55621911	      8.04677466	    102.21408103	     67.53246858	     -9.66344846	      8.48337728	    -23.98842083	    -14.09611058	     -4.78157680	     49.61011326	     68.13310841	     -2.80108525	     13.75873796
      0.07200000	      7.44595046	     -1.56325581	     -5.80797574	     -1.71270435	      0.99545564	      0.29973395	     17.32221330	      1.14789108	     -0.76673206	    -31.50910863	     -0.81455212	    -10.29270250	     -0.23473663	     27.42591318	     -5.83259541	    -16.02529312	   -140.02492369	    -10.74666781	    -10.79692809	     12.53689636	    -28.60406743	      2.83640425	     -5.40252138	     -2.53125270	    -13.65708866	     12.54012731	    102.09243761	     68.44182586	    -10.15297476	      9.09443698	    -28.06598256	    -13.53926844	     -7.26389620	     49.39026139	     69.48303184	     -2.52481167	     14.77122977
      0.07600000	      7.79612806	     -0.42560932	     -6.44810882	     -1.67221524	      0.99133665	      0.30258790	     14.68476661	      0.02946595	     -0.58134462	    -32.85715809	      7.60249035	     -8.42089350	     -5.59981475	     30.12851845	     -5.71616697	    -16.91460151	   -141.13435559	    -10.04663705	    -11.33748514	     12.19200627	    -28.25022221	      0.83522482	     -6.74028481	      1.90044578	    -12.48671057	     16.05118247	    102.01290058	     68.19747771	    -10.95209843	     10.00679747	    -32.00630705	    -12.47234171	    -11.69687012	     48.35278165	     72.48799053	     -2.02088689	     16.42087237
      0.08000000	      8.04567087	     -0.12214710	     -8.73851747	     -1.63406142	      0.98813576	      0.30572998	     12.74922808	     -0.23971888	      0.70790487	    -34.25385472	     12.35058943	     -6.86763867	     -6.11392618	     32.75550118	     -7.20936162	    -18.90710075	   -141.86626926	    -10.35204595	    -13.17033608	     12.88881394	    -28.06824107	     -0.85073468	     -5.55998799	      6.21027959	    -11.28053641	     17.83229874	    102.91947154	     66.43993340	    -11.47891157	     10.69833507	    -35.20403377	    -11.51468228	    -13.44099690	     47.50646412	     75.16364240	     -1.56762501	     17.59651201
      0.08400000	      8.18580295	      0.57883108	     -9.94485183	     -1.59416620	      0.98496810	      0.30844118	     10.85488137	     -1.17910934	      1.14856982	    -35.43048598	     15.17172700	     -6.95554947	     -4.20704567	     35.55938426	     -7.82285226	    -19.85444787	   -142.26375627	     -9.66428342	    -13.90946028	     12.46675843	    -27.36279569	     -2.49682329	     -5.49294436	     10.34026434	     -9.97230438	     21.52934729	    103.10370555	     63.17374456	    -12.46996920	     11.68105819	    -38.26234506	    -10.35578063	    -16.86412447	     45.53800989	     78.89337273	     -0.68504502	     19.30827966
      0.08800000	      7.59456685	      0.63159589	    -10.58752024	     -1.55341234	      0.98181303	      0.30952262	      9.37556439	     -1.74514795	      0.30698297	    -36.21892352	     18.08191125	     -5.01684325	     -3.71059723	     39.28111301	     -8.65532506	    -19.75246625	   -142.44293604	     -9.25479046	    -14.71478620	     12.33981202	    -25.93106715	     -2.95865664	     -3.97392582	     12.47153433	     -9.10172806	     20.35390690	    104.50494171	     63.18922867	    -12.64227931	     11.84737806	    -40.62492093	    -10.23638146	    -17.21444481	     44.43779894	     79.43048918	     -0.48615517	     19.60802425
      0.09200000	      7.22228407	      1.23369483	    -11.81705791	     -1.51396434	      0.97883845	      0.31158395	      7.87694762	     -2.64933951	      0.66505773	    -36.97420694	     20.17704343	     -5.19869098	     -3.25154883	     42.67514706	     -9.31323499	    -20.39031183	   -142.18576496	     -8.71106267	    -15.52697683	     11.97631107	    -24.69686838	     -4.23377270	     -2.47117188	     15.26022833	     -7.84295297	     21.16318884	    105.16414661	     63.63138391	    -12.85597082	     12.09069101	    -43.16276869	    -10.07711540	    -17.80103597	     43.59477061	     80.24259723	     -0.19364413	     19.97211572
      0.09600000	      7.05637719	      1.55909097	    -13.62351705	     -1.47552149	      0.97618432	      0.31390645	      6.21011957	     -3.34701736	      1.73418678	    -37.67139938	     21.77057263	     -5.16753439	     -3.06157205	     45.72048585	    -10.59269736	    -21.05679454	   -141.58008551	     -8.19174770	    -15.88904596	     11.74962429	    -23.73219761	     -5.38346216	     -0.54187435	     18.22849950	     -6.40801428	     21.12610308	    105.75157819	     64.17179925	    -12.95489680	     12.21835978	    -45.88111754	     -9.67974049	    -18.53071347	     43.34428005	     80.63802347	     -0.02040781	     20.14692425
      0.10000000	      6.63495126	      2.39237563	    -15.25221425	     -1.43682346	      0.97335021	      0.31495916	      5.06462136	     -4.59237759	      3.12358719	    -38.48103356	     22.64787263	     -5.55235802	     -2.72176834	     49.07970498	    -11.14318366	    -21.73727552	   -140.60170776	     -7.76007723	    -15.68877752	     11.58458333	    -22.30055511	     -6.81074826	      1.27904891	     20.99792477	     -5.60766554	     21.49516053	    107.06435492	     65.00312042	    -13.04286940	     12.36022523	    -48.55861499	     -9.17201287	    -19.73551489	     43.55288768	     80.94442062	      0.17156413	     20.30615252
